<svg width="191" height="74" viewBox="0 0 191 74" fill="none" xmlns="http://www.w3.org/2000/svg">
<path fill-rule="evenodd" clip-rule="evenodd" d="M141.986 0.079356C143.185 0.0555046 144.157 0.0361536 144.415 0.0318618C145.917 -0.00487718 149.061 -0.0110041 149.03 0.0196117C148.994 0.0624739 146.726 0.233924 143.925 0.417619C126.854 1.52591 113.412 3.54043 107.516 5.87947C104.372 7.1286 102.177 8.90431 101.711 10.5759C100.902 13.5028 104.433 16.8093 112.757 20.9241C115.95 22.5039 117.096 22.9937 118.647 23.4407L120.032 23.8387L125.818 23.802C129 23.7775 133.879 23.7407 136.661 23.7224L141.718 23.6795L142.178 26.4043C142.429 27.9045 142.656 29.1352 142.68 29.1352C142.699 29.1352 143.851 27.8984 145.242 26.3921L147.762 23.6428L155.037 23.606C168.038 23.5325 181.388 23.4407 183.6 23.4162C185.194 23.3978 185.758 23.4101 185.758 23.4652C185.752 23.5019 185.053 24.7694 184.201 26.288C183.177 28.1065 182.669 29.0618 182.718 29.0862C182.754 29.1107 182.902 29.1352 183.043 29.1352C183.201 29.1352 183.321 29.1283 183.353 29.1779C183.436 29.3091 182.893 29.836 180.762 31.9335L178.004 34.6461H179.365H180.726L179.23 37.677C177.495 41.1917 177.281 41.5285 175.988 42.8205C174.235 44.5717 172.475 45.8821 171.476 46.1882C171.053 46.3229 168.062 46.3903 162.276 46.3964C158.237 46.4025 156.257 46.4454 156.306 46.5311C156.324 46.5556 156.22 46.5924 156.079 46.6169C155.718 46.6781 155.423 46.8373 155.117 47.1434C154.786 47.4741 154.608 47.7864 154.271 48.6008C153.738 49.8866 153.572 50.0519 152.812 50.0397C152.5 50.0336 151.997 49.9601 151.433 49.8376C150.097 49.5376 149.607 49.3662 149.361 49.1212C149.165 48.9253 149.153 48.8885 149.178 48.5824C149.196 48.3436 149.312 48.0374 149.613 47.4129C149.84 46.9536 150.023 46.5434 150.023 46.5066C150.023 46.4638 149.6 46.4576 148.675 46.4883C147.719 46.5128 147.326 46.5066 147.326 46.4638C147.326 46.427 147.492 46.0107 147.694 45.5331C147.897 45.0616 148.062 44.6391 148.062 44.5962C148.062 44.4554 146.763 44.3819 146.438 44.5044C145.911 44.7064 144.654 46.0596 144.329 46.7761C143.961 47.5782 144.2 47.7558 146.744 48.6069L148.338 49.1396L147.48 50.0213C146.193 51.3439 145.242 52.4645 145.242 52.6604C145.242 52.8441 146.284 53.2605 148.209 53.8422C150.311 54.479 150.649 54.7055 150.422 55.3424C150.373 55.4893 150.072 55.9669 149.766 56.4017C149.116 57.3201 148.889 57.81 148.939 58.1774C149.03 58.8509 149.858 59.3163 152.107 59.9653C155.203 60.8593 155.681 60.7001 156.171 58.6182C156.263 58.2447 156.355 57.7488 156.38 57.5161C156.508 56.4384 156.294 56.2486 154.283 55.6546C153.045 55.2934 152.255 55.0178 151.832 54.8096C151.616 54.7 151.478 54.6484 151.426 54.5508C151.338 54.3815 151.514 54.0736 152.015 53.0829C152.751 51.6195 153.021 51.2337 153.419 51.05C153.781 50.8847 154.063 50.9031 155.442 51.1847C156.803 51.4603 157.661 51.546 158.016 51.4235C158.562 51.246 158.739 50.9153 159.224 49.2498C159.745 47.4496 159.855 47.272 160.468 47.3394C160.854 47.3761 162.969 48.0619 163.453 48.3068C164.072 48.6191 164.231 48.9314 164.158 49.7213C164.103 50.3214 163.79 51.8154 163.637 52.2318C163.477 52.6482 163.165 52.9543 162.895 52.9543C162.797 52.9543 162.233 52.8196 161.645 52.6543C159.162 51.9501 158.635 51.9869 158.169 52.9115C157.863 53.5054 157.311 55.2076 157.281 55.6485C157.219 56.4139 157.489 56.5854 159.616 57.1793C162.589 58.0059 162.625 58.0365 162.613 59.4143C162.601 60.4307 162.442 61.7656 162.288 62.1084C162.141 62.4391 161.988 62.5248 161.534 62.5187C161.075 62.5126 160.793 62.4391 158.022 61.6125C156.741 61.2267 155.65 60.9144 155.595 60.9144C155.515 60.9144 155.423 61.0859 155.246 61.539C154.951 62.2983 154.479 63.7495 154.308 64.423C154.118 65.17 154.124 65.1823 154.804 65.519C155.687 65.9599 156.956 66.4008 159.849 67.258L162.466 68.0418L162.46 70.191C162.46 72.1749 162.417 73.1669 162.337 73.2465C162.307 73.2771 160.468 72.6587 157.072 71.4646C152.684 69.9277 152.506 69.7195 153.186 66.9519C153.431 65.9415 153.437 65.7762 153.254 65.5007C152.996 65.1149 152.469 64.9006 149.931 64.1597C148.056 63.6086 146.407 62.9534 146.168 62.6657C146.113 62.5983 146.094 62.4636 146.113 62.2554C146.162 61.7594 146.573 61.043 147.461 59.9102C147.896 59.3469 148.234 58.8632 148.209 58.8387C148.178 58.8142 147.921 58.704 147.633 58.5999C144.292 57.3752 141.994 56.4874 141.81 56.3343C141.767 56.2994 141.738 56.2762 141.728 56.2466C141.708 56.1881 141.762 56.1048 141.92 55.8567C142.233 55.3791 142.68 54.8586 143.827 53.6646C144.495 52.9727 144.74 52.6788 144.679 52.6482C144.636 52.6237 143.937 52.4032 143.134 52.1583C141.087 51.546 139.91 51.0684 139.91 50.8418C139.91 50.6092 140.799 49.7519 142.454 48.3987C142.635 48.2489 142.808 48.1056 142.963 47.9777C143.327 47.6768 143.589 47.4607 143.606 47.4435C143.637 47.419 143.073 47.1986 142.349 46.9598L141.044 46.525L139.113 46.5679L137.182 46.6046L136.906 46.8312C136.753 46.9598 136.232 47.3149 135.742 47.6272C134.455 48.4477 134.026 48.8396 134.026 49.2131C134.026 49.4213 134.344 49.5743 134.878 49.6172C135.822 49.6968 136.698 50.0091 137.924 50.6888C138.214 50.8521 138.472 50.9991 138.615 51.0807C138.686 51.1215 138.729 51.146 138.733 51.148C138.758 51.1725 138.519 51.3072 137.146 52.0481C135.38 53.0033 134.467 53.6769 134.614 53.9218C134.7 54.0687 135.785 54.6015 136.606 54.9015C137.415 55.1893 140.958 56.3221 141.062 56.3221C141.105 56.3221 141.136 56.3404 141.13 56.3649C141.13 56.3955 140.167 57.2099 138.99 58.1896C137.814 59.1632 136.851 59.9776 136.851 59.996C136.845 60.0143 137.513 60.2409 138.335 60.5042C141.853 61.6247 145.322 62.7514 145.341 62.7697C145.353 62.782 144.777 63.3821 144.059 64.1046C142.803 65.3782 142.104 65.9599 141.632 66.1252C141.418 66.1987 140.921 66.0763 138.997 65.4639C138.022 65.1578 133.59 63.6515 131.77 63.0147L131.506 62.9228L132.806 62.1942C134.4 61.3002 134.749 61.092 135.252 60.7369C135.797 60.3511 136.11 60.0633 136.11 59.9347C136.11 59.751 134.639 59.1448 130.857 57.7733C129.533 57.2956 128.448 56.8854 128.448 56.867C128.448 56.8487 129.435 56.3343 130.642 55.722C130.933 55.5736 131.23 55.4223 131.518 55.2755C132.419 54.8165 133.235 54.4009 133.523 54.2524L134.21 53.8912L132.389 53.3217C130.25 52.6543 129.11 52.244 128.38 51.8828C127.841 51.6072 127.676 51.4725 127.743 51.3623C127.847 51.1909 129.085 50.652 130.471 50.1683C131.445 49.8315 132.463 49.3539 132.665 49.1396L132.806 48.9865L132.604 48.8273C132.168 48.4967 131.059 48.0803 129.091 47.5047C128.485 47.3271 127.97 47.1618 127.939 47.1373C127.878 47.0822 130.685 45.8331 131.531 45.5392C131.893 45.4106 132.383 45.2759 132.616 45.233L133.039 45.1595L132.745 44.8289C132.585 44.6513 132.358 44.339 132.242 44.137C132.034 43.7818 132.027 43.7757 131.635 43.6839C130.354 43.3961 129.502 43.5614 127.682 44.4493C127.21 44.6758 126.597 44.9942 126.321 45.1534C126.09 45.2838 125.967 45.3491 125.876 45.4445C125.762 45.5641 125.697 45.7311 125.53 46.1331C125.512 46.1699 125.677 46.3168 125.898 46.4576C126.413 46.7822 126.48 46.9046 126.272 47.1067C126.064 47.321 125.573 47.5292 124.065 48.0558C122.276 48.6742 121.093 49.1886 121.093 49.3478C121.093 49.3784 121.154 49.4396 121.234 49.4886C121.479 49.6539 123.17 50.352 124.954 51.0255C125.916 51.3929 126.726 51.7052 126.75 51.7297C126.775 51.7542 126.474 51.8766 126.076 51.9991C122.466 53.138 120.694 53.7565 120.486 53.9646C120.418 54.032 120.449 54.0687 120.706 54.1973C121.123 54.4116 123.232 55.2383 125.892 56.2302C127.13 56.6956 128.123 57.0936 128.099 57.1181C128.074 57.1364 126.529 57.6324 124.666 58.2141L121.283 59.2734L116.318 57.5712C113.59 56.6282 111.371 55.8445 111.396 55.8261C111.42 55.8077 112.266 55.6179 113.278 55.4097C114.289 55.1954 115.515 54.926 116.005 54.8096C117.967 54.3382 119.297 53.7503 119.168 53.4136C119.119 53.2789 118.886 53.2054 118.236 53.1319C117.164 53.0156 116.054 52.642 113.688 51.6011C112.75 51.1909 112.413 51.0133 112.493 50.9827C112.554 50.9582 113.541 50.7439 114.687 50.4989C115.834 50.2601 117.047 49.9785 117.384 49.8805C120.106 49.0722 119.701 48.1966 116.557 48.0742C114.902 48.0129 113.014 48.2028 110.403 48.6987C109.14 48.9375 108.478 49.1335 108.38 49.2927C108.288 49.4396 108.423 49.5682 109.11 49.954C109.759 50.3214 109.974 50.5112 109.913 50.6581C109.778 51.0072 107.933 51.3623 106.247 51.3623C105.677 51.3623 105.61 51.3807 104.733 51.693C104.224 51.8766 103.648 52.0603 103.446 52.1032C102.992 52.1889 102.57 52.1216 101.509 51.7848C101.194 51.6847 100.356 51.425 99.4586 51.1473C99.2034 51.0683 98.9435 50.9879 98.6896 50.9092C95.3859 49.8927 92.0269 48.6865 86.5595 46.5495L83.9974 45.5453L83.1883 45.8147C81.4292 46.4025 79.7252 46.7148 77.298 46.8924C76.495 46.9536 60.7792 47.0945 60.7241 47.0455C60.7118 47.0332 61.2328 45.7902 61.8764 44.2839C62.52 42.7776 63.041 41.5408 63.0348 41.5285C63.0226 41.5224 59.7617 41.5346 55.7838 41.5652L54.4958 41.5752C51.0015 41.6021 47.8495 41.6265 47.1719 41.6265H45.7928L44.5363 42.7348C44.1896 43.0413 43.8305 43.3586 43.5315 43.6228C43.2332 43.8864 42.9946 44.0973 42.8875 44.1921L42.4952 44.535L37.3404 44.5656L32.1917 44.5962L29.9973 49.7029C28.796 52.5073 27.7969 54.8158 27.7907 54.828C27.7601 54.8525 0.0245288 55.0484 1.12159e-05 55.024C-0.00611819 55.0117 2.50081 49.1335 5.57777 41.9632C8.65474 34.7869 12.7369 25.2654 14.6493 20.8016L18.1308 12.6823L21.2568 12.6456C22.9792 12.6211 25.529 12.6027 26.9142 12.6027C28.2995 12.6027 30.9719 12.5843 32.8414 12.5598L36.2432 12.5231L36.3474 12.0945C36.5681 11.1576 37.132 10.2085 37.9778 9.33294C41.5022 5.67741 51.0335 2.873 64.8246 1.43406C68.9742 0.999315 73.7184 0.699281 78.8916 0.540079C81.0982 0.466601 93.3019 0.466602 95.533 0.533957L96.8508 0.570695L94.2764 0.742144C90.8807 0.974824 87.859 1.18913 86.4614 1.30547C76.6483 2.1321 68.6739 3.34449 62.4648 4.94875C55.8267 6.66324 51.2603 8.7696 48.7288 11.2862C48.263 11.7455 47.6991 12.4129 47.7358 12.4558C47.7542 12.4741 62.238 12.3823 67.7545 12.3333C69.6914 12.3149 71.2605 12.321 71.2483 12.3455C71.236 12.3761 69.9059 14.7458 68.2878 17.6114L65.3456 22.8284L62.7039 25.9206C61.2205 27.6534 59.8659 29.172 59.6208 29.3863C59.3817 29.5945 59.1856 29.7904 59.1856 29.8149C59.1856 29.8455 61.1531 29.87 63.5558 29.87C66.9577 29.87 67.9506 29.8516 68.0242 29.7904C68.0793 29.7537 68.6555 28.4739 69.3052 26.9554L70.4821 24.1877L72.2657 24.151C73.2464 24.1326 77.3348 24.0959 81.3434 24.0775C86.8537 24.0469 88.7845 24.0591 89.2503 24.1142C90.8256 24.3041 92.1863 24.8613 93.2038 25.7308C93.4244 25.9206 93.6145 26.0737 93.6329 26.0737C93.6512 26.0737 93.8596 25.6083 94.0987 25.045L94.5339 24.0224L98.0828 23.9857C98.9899 23.9771 99.9608 23.9672 100.819 23.9585C101.805 23.9485 102.643 23.9399 103.066 23.9367L104.5 23.9305L103.311 22.9447C102.655 22.4059 101.546 21.518 100.841 20.9731C99.1493 19.6627 97.5925 18.4258 96.9121 17.838C93.8045 15.1744 91.1933 12.3027 90.3659 10.6494C90.0717 10.0616 90.0472 9.982 90.0472 9.57787C90.0472 9.20435 90.0778 9.07576 90.2494 8.72674C91.0646 7.07349 93.5899 5.24879 96.293 4.36705C97.9847 3.80985 100.939 3.13018 103.71 2.65257C112.021 1.22587 123.269 0.442106 140.37 0.111455C140.924 0.100485 141.476 0.0895151 141.986 0.079356ZM177.863 28.9087C178.531 28.1739 179.077 27.4942 179.077 27.4024C179.077 27.3534 176.907 27.3595 166.849 27.433C162.938 27.4636 159.726 27.5065 159.702 27.531C159.653 27.5799 153.333 42.2755 153.29 42.4409C153.26 42.545 153.548 42.5511 160.48 42.5143C164.458 42.496 168.32 42.4654 169.067 42.447L170.428 42.4102L171.084 41.9204C171.856 41.3448 173.199 40.163 173.585 39.7099C173.867 39.3854 174.431 38.6139 174.4 38.5894C174.394 38.5833 171.476 38.6016 167.921 38.6261C164.366 38.6567 161.442 38.669 161.43 38.6567C161.418 38.6384 161.565 38.2587 161.755 37.8117L162.104 36.9912L165.506 36.9484L168.914 36.9055L171.299 34.9951C172.61 33.948 173.671 33.0785 173.652 33.0663C173.64 33.0541 171.875 33.0602 169.729 33.0847L165.831 33.1337L164.287 34.4012C163.435 35.0992 162.73 35.6625 162.717 35.6503C162.705 35.638 163.116 34.6522 163.631 33.4643L164.568 31.2967L168.467 31.26C170.612 31.2355 173.003 31.2171 173.781 31.2171H175.191L175.571 30.9844C176.11 30.6599 177.072 29.7904 177.863 28.9087ZM143.722 41.6081C144.121 41.2591 156.398 27.6902 156.447 27.5432C156.459 27.5065 156.367 27.4881 156.232 27.4942C156.104 27.5065 154.535 27.5187 152.745 27.5248L149.49 27.5432L144.85 32.5948C142.3 35.3747 140.186 37.6464 140.161 37.6464C140.137 37.6464 139.763 35.5462 139.334 32.9745C138.899 30.4088 138.519 28.1494 138.488 27.9596L138.427 27.6106L135.472 27.6473C133.854 27.6657 132.518 27.684 132.512 27.6902C132.469 27.7208 134.78 40.1508 134.902 40.5549C135.141 41.3203 135.356 41.8163 135.607 42.1469C135.612 42.154 135.618 42.1611 135.623 42.168C135.719 42.2956 135.791 42.3907 135.882 42.4613C136.146 42.667 136.572 42.6659 138.235 42.6615C138.262 42.6614 138.289 42.6614 138.316 42.6613C139.444 42.6552 140.829 42.6368 141.387 42.6184L142.405 42.5756L142.84 42.2878C143.073 42.1286 143.471 41.8224 143.722 41.6081ZM125.947 35.289C127.7 31.211 129.147 27.831 129.165 27.7698C129.196 27.6718 129.128 27.6657 128.258 27.6779C127.88 27.6868 127.006 27.6989 126.068 27.7119C126.068 27.7119 126.068 27.7119 126.068 27.7119C125.922 27.7139 125.774 27.716 125.626 27.718C125.415 27.721 125.203 27.7239 124.997 27.7269L122.68 27.7575L119.45 35.2584L116.214 42.7593L118.825 42.7715C120.259 42.7838 121.73 42.7715 122.092 42.7409L122.754 42.698L125.947 35.289ZM115.913 30.4211C115.576 29.0434 114.626 28.1065 113.333 27.88C112.8 27.782 112.358 27.782 102.692 27.8494C99.3087 27.8677 97.1695 27.9106 97.1327 27.9412C97.0469 28.0331 90.6785 42.9185 90.7091 42.9491C90.7275 42.9674 92.1924 42.9613 93.9761 42.9307L97.2124 42.8817L98.3096 40.3039C99.2719 38.0444 99.4251 37.7138 99.5845 37.6219L99.7684 37.5117L102.232 39.367C102.71 39.7278 103.218 40.1108 103.701 40.4749C103.702 40.4757 103.703 40.4764 103.704 40.4771C104.588 41.1441 105.389 41.7478 105.769 42.0367L106.842 42.8511L109.232 42.8389C110.55 42.8389 112.168 42.8205 112.842 42.796L114.056 42.7593L111.592 40.6774C111.011 40.1882 110.406 39.6788 109.868 39.2258C109.858 39.2178 109.849 39.2098 109.839 39.2019C109.836 39.1992 109.833 39.1965 109.83 39.1938C109.125 38.6007 108.541 38.1084 108.282 37.8914L107.436 37.1872L107.724 37.1443C107.878 37.1198 108.503 37.0402 109.11 36.9729C112.046 36.63 113.811 35.9503 115.037 34.7012C115.552 34.1746 115.815 33.7154 115.981 33.0541C116.103 32.5642 116.066 31.0457 115.913 30.4211ZM91.7021 30.3415C91.4079 29.221 90.654 28.4556 89.4832 28.1127C89.1584 28.0147 88.7109 28.0024 84.6533 28.0024C82.1954 28.0024 78.5852 28.0147 76.636 28.0331L73.0932 28.0637L69.8753 35.5523C68.11 39.6732 66.6635 43.0593 66.6635 43.0715C66.6635 43.1205 73.7307 43.0899 75.6124 43.0348C76.6421 43.0042 77.868 42.9368 78.34 42.8817C82.5448 42.398 85.7443 40.7999 88.3186 37.9036C89.0113 37.126 90.3046 35.5033 90.6049 35.0257C91.1014 34.2542 91.5059 33.2622 91.7021 32.3499C91.8185 31.7927 91.8185 30.7885 91.7021 30.3415ZM66.1918 33.8226C66.4779 33.5943 66.6501 33.4569 66.6573 33.4521C66.6941 33.4092 66.026 33.4214 61.0489 33.5745L56.5745 33.7092L54.1717 35.6258C52.8539 36.6851 51.7751 37.5546 51.7874 37.5607C51.7996 37.5729 59.014 37.3709 60.7547 37.3097L61.858 37.2668L64.2423 35.3747C65.0381 34.7432 65.7504 34.1748 66.1918 33.8226ZM148.94 42.6314L149.067 42.3368C149.355 41.6632 149.588 41.106 149.576 41.0999C149.57 41.0938 149.055 41.651 148.436 42.3368C147.817 43.0287 147.32 43.6043 147.333 43.6165C147.345 43.6226 147.584 43.7022 147.866 43.788L148.381 43.9472L148.46 43.7512C148.497 43.6574 148.702 43.1822 148.94 42.6314ZM10.8893 47.7563L11.4349 46.5227L22.7987 19.857L58.6931 19.6672C57.5011 21.219 56.3492 22.546 55.1819 23.7714C53.9927 24.9781 52.809 26.0929 51.4098 26.7843L31.8375 26.903L28.3027 35.0877L34.1625 30.3192L48.6341 30.248L39.8088 37.3652L27.2825 37.4127L22.8936 47.6851L10.8893 47.7563Z" fill="black"/>
<path d="M11.4349 46.5227L10.8893 47.7563L22.8936 47.6851L27.2825 37.4127L39.8088 37.3652L48.6341 30.248L34.1625 30.3192L28.3027 35.0877L31.8375 26.903L51.4098 26.7843C52.809 26.0929 53.9927 24.9781 55.1819 23.7714C56.3492 22.546 57.5011 21.219 58.6931 19.6672L22.7987 19.857L11.4349 46.5227Z" fill="#FF0000"/>
<path d="M101.987 31.7498C101.963 31.8111 101.54 32.7969 101.037 33.9358C100.541 35.0808 100.142 36.0238 100.149 36.0299C100.155 36.036 100.823 35.4788 101.626 34.793L103.097 33.55L105.947 33.5317C109.159 33.5133 109.048 33.5255 109.318 33.0541C109.416 32.8765 109.471 32.6561 109.496 32.3866C109.514 32.0376 109.502 31.958 109.386 31.8111L109.257 31.6457H105.64C102.257 31.6457 102.024 31.6519 101.987 31.7498Z" fill="black"/>
<path d="M77.9477 32.0866C77.8864 32.2336 77.1815 33.8623 76.3786 35.7177C75.5817 37.5669 74.9075 39.1221 74.8891 39.1711C74.8339 39.312 76.4031 39.214 77.206 39.0303C78.9223 38.6323 81.0737 37.6465 82.2812 36.6974C82.937 36.1892 83.9055 35.038 84.1936 34.4318C84.6533 33.4582 84.7636 33.1153 84.7268 32.7908C84.6778 32.4173 84.5245 32.1479 84.2548 31.9703L84.0526 31.8295H81.0553H78.058L77.9477 32.0866Z" fill="black"/>
<path d="M172.396 13.1844C168.706 13.264 165.267 13.3314 164.753 13.3314L163.827 13.3375L163.447 14.2315C163.239 14.7213 163.079 15.1377 163.098 15.15C163.11 15.1622 166.689 15.101 171.054 15.0153C175.418 14.9295 179.328 14.8683 179.751 14.8805C181.075 14.9234 181.406 15.1867 181.118 15.9888C180.818 16.8277 180.174 17.1461 178.587 17.2196C177.532 17.2747 163.937 17.5196 163.907 17.489C163.888 17.4706 164.023 17.1033 164.207 16.6685L164.538 15.8786L163.674 15.8602C163.202 15.8541 162.791 15.8664 162.767 15.8909C162.699 15.9643 160.48 21.2364 160.511 21.2548C160.523 21.2609 160.928 21.2548 161.412 21.2364L162.289 21.2058L162.662 20.3179C162.865 19.8281 163.049 19.4117 163.073 19.3872C163.11 19.3443 164.514 19.3076 173.836 19.1239C178.623 19.0259 179.01 19.0014 179.929 18.6891C181.474 18.1626 182.577 17.0665 183.061 15.5847C183.263 14.9663 183.221 14.305 182.969 13.9376C182.736 13.6069 182.264 13.3253 181.725 13.1844C181.106 13.0252 179.917 13.0252 172.396 13.1844Z" fill="#FF0000"/>
<path d="M159.917 15.8602C159.347 17.2134 158.795 18.4625 158.697 18.6279C158.36 19.1912 157.735 19.4178 156.202 19.5157C155.718 19.5525 152.684 19.6259 149.46 19.6811C144.967 19.7668 143.465 19.7729 143.073 19.7178C142.57 19.6504 142.197 19.5218 142.105 19.3749C141.97 19.1728 142.105 18.7809 143.104 16.4052C143.686 15.0397 144.17 13.8763 144.182 13.8273C144.201 13.7477 144.084 13.7355 143.33 13.7538C142.846 13.7661 142.442 13.7844 142.436 13.7967C142.387 13.8457 140.26 18.9034 140.149 19.2402C139.996 19.6811 139.984 20.2872 140.113 20.5383C140.333 20.9608 140.824 21.2669 141.498 21.4139C142.368 21.5976 143.208 21.6037 149.35 21.4813C156.196 21.3404 156.662 21.3098 157.869 20.9179C159.01 20.5505 159.868 19.8586 160.376 18.9034C160.554 18.585 162.626 13.7477 162.693 13.5028C162.724 13.4048 162.657 13.3987 161.841 13.3987H160.959L159.917 15.8602Z" fill="#FF0000"/>
<path d="M135.374 13.8947C125.72 14.0845 124.58 14.1213 123.722 14.2498C122.3 14.4703 121.405 14.8622 120.657 15.6031C120.093 16.1541 119.915 16.4725 119.235 18.0829C118.555 19.6872 118.487 19.8954 118.487 20.4159C118.487 20.7832 118.512 20.8873 118.653 21.1017C118.867 21.4201 119.223 21.6282 119.842 21.7997C120.271 21.916 120.528 21.9344 122.073 21.9528C123.035 21.9711 126.688 21.9222 130.194 21.8548C133.7 21.7813 136.863 21.7262 137.219 21.7262H137.868L138.249 20.8261C138.451 20.3363 138.61 19.9199 138.598 19.9076C138.586 19.8954 134.951 19.9566 130.525 20.0423C126.094 20.1342 122.214 20.1893 121.901 20.1648C120.939 20.0975 120.479 19.8954 120.479 19.5464C120.479 19.3749 121 18.0768 121.436 17.1583C121.656 16.6869 121.742 16.5705 121.981 16.4113C122.324 16.1848 122.845 16.0562 123.789 15.9704C124.175 15.9337 128.08 15.8419 132.456 15.7561C136.839 15.6704 140.443 15.5847 140.461 15.5602C140.516 15.499 141.197 13.8702 141.197 13.809C141.197 13.7845 141.105 13.7722 141.001 13.7722C140.89 13.7784 138.359 13.8335 135.374 13.8947Z" fill="#FF0000"/>
<path d="M187.585 15.2908C187.094 15.45 186.751 15.6643 186.42 16.0194C185.133 17.391 185.648 19.6321 187.413 20.3301C187.683 20.4342 187.879 20.4648 188.363 20.4648C188.847 20.4648 189.044 20.4342 189.313 20.3301C189.987 20.0607 190.588 19.4606 190.858 18.7871C191.048 18.3034 191.048 17.3665 190.858 16.8889C190.576 16.197 189.994 15.6092 189.332 15.352C188.835 15.1622 188.057 15.1316 187.585 15.2908ZM188.835 15.4867C189.295 15.5847 189.834 15.8847 190.122 16.2092C191.409 17.6543 190.631 19.8648 188.713 20.2015C187.769 20.3669 186.72 19.8464 186.261 18.9892C185.875 18.2483 185.862 17.4951 186.224 16.7665C186.72 15.7806 187.775 15.2663 188.835 15.4867Z" fill="black"/>
<path d="M187.211 16.5032C187.186 16.5216 187.168 17.1278 187.168 17.8503V19.1545H187.352H187.536V18.5728V17.9911H187.861C188.277 17.9911 188.375 18.0646 188.768 18.6647C189.062 19.1178 189.099 19.1545 189.289 19.1545C189.405 19.1545 189.497 19.1423 189.497 19.1239C189.497 19.0566 188.896 18.2055 188.768 18.0891L188.639 17.9728L188.878 17.8626C189.185 17.7278 189.313 17.538 189.313 17.2135C189.313 16.8277 189.074 16.5767 188.633 16.5155C188.216 16.4542 187.266 16.4481 187.211 16.5032ZM188.817 16.9135C188.976 17.0604 188.982 17.3237 188.829 17.5074C188.725 17.6421 188.651 17.6544 188.124 17.6727L187.536 17.6972V17.2257V16.7543L188.112 16.7788C188.572 16.7971 188.719 16.8277 188.817 16.9135Z" fill="black"/>
</svg>
