<svg width="373" height="117" viewBox="0 0 373 117" fill="none" xmlns="http://www.w3.org/2000/svg">
<g clip-path="url(#clip0_614_9124)">
<path fill-rule="evenodd" clip-rule="evenodd" d="M152.638 75.0169H152.731L152.943 74.9707C154.524 74.6306 156.058 74.2001 157.547 73.6732L156.696 75.8777L171.133 75.7832C171.135 75.7832 189.35 75.6342 189.35 75.6342L191.425 70.2655L197.755 75.5712L203.767 75.5271L203.759 75.546L218.198 75.4368C218.2 75.4368 236.417 75.2961 236.417 75.2961L242.686 59.1146L243.008 61.0798L243.091 61.4346C243.203 61.9406 243.346 62.5348 243.519 63.1878V63.2277L243.607 63.5699C243.897 64.668 244.264 65.7199 244.686 66.7361C245.276 68.2562 246.118 69.8036 247.26 71.1641L247.262 71.1662C249.031 73.2595 252.368 75.1786 255.457 75.1786H255.466C255.474 75.1786 265.84 75.0946 265.84 75.0946C268.563 75.0631 270.345 74.1015 271.695 73.1965L271.739 73.1672L271.75 73.1608L271.824 73.1168L271.909 73.058C272.327 72.7598 272.745 72.4512 273.157 72.1279L272.034 75.0421L318.136 74.7062L319.975 74.4857L320.138 74.4374C320.138 74.4374 320.919 74.2001 321.161 74.0994C321.605 73.9188 321.897 73.7697 322.122 73.6333C322.529 73.4338 322.758 73.2742 322.935 73.1315C323.204 72.9614 323.367 72.848 323.508 72.7283C323.735 72.5625 323.938 72.3903 324.197 72.1992L324.237 72.1699C324.878 71.6576 325.533 71.0949 326.234 70.5028L326.354 70.402L326.467 70.2739L326.484 70.2613C327.156 69.6335 327.782 69.0184 328.436 68.3717C329.271 67.5591 329.999 66.8243 330.733 65.9572L330.748 65.9382C331.208 65.3735 331.283 65.2559 331.452 65.0144C331.8 64.563 332.121 64.0927 332.415 63.614C332.566 63.3705 332.695 63.1521 332.855 62.9064L332.869 62.8855C333.009 62.7196 333.357 62.2283 333.911 60.9916L333.913 60.9895C333.915 60.9853 340.723 45.7066 340.723 45.7066L337.547 45.7402L347.24 35.1016L344.204 34.7782L350.306 22.7182L297.35 23.1066L275.337 23.2494L268.345 31.7044L267.068 23.306L242.525 23.5055L223.864 23.6483L222.108 28.1792C221.236 27.3016 220.287 26.5478 219.305 25.9389C216.475 24.1606 213.617 23.7071 210.898 23.7386L176.748 23.9842L175.649 26.825C174.546 26.0397 173.379 25.4497 172.192 25.0151L171.852 24.8912H171.795C169.856 24.2656 167.83 24.0241 165.92 24.0556C165.922 24.0556 132.415 24.2992 132.415 24.2992L127.931 35.9351L118.136 36.0023L126.221 25.498L139.17 0.000366211L35.8882 0.748879L31.8941 11.1515L0.5 92.5191L56.6418 92.116L64.7634 71.1032L83.1474 70.9815L89.2029 65.027L116.796 64.836L112.419 76.1948L142.429 75.9911C146.101 75.9596 149.485 75.6426 152.638 75.0169Z" fill="#FAFAFA"/>
<path d="M88.3495 62.5538L120.19 62.3333L115.813 73.6921L142.414 73.5116C146.026 73.4822 149.348 73.1651 152.443 72.5374H152.517C155.655 71.8592 158.608 70.8136 161.343 69.3439H161.37C161.489 69.2788 161.608 69.2137 161.726 69.1486L160.093 73.3751L171.118 73.3016L187.872 73.1651L190.496 66.3792L198.498 73.0874L207.168 73.0224L207.162 73.0392L218.183 72.9573L234.941 72.8271L243.562 50.5777L245.189 60.5382L245.257 60.8258C245.376 61.3738 245.539 62.0352 245.733 62.7659L245.752 62.8183V62.8729C246.013 63.8639 246.344 64.8108 246.727 65.7284C247.222 67.0112 247.928 68.3235 248.893 69.472C250.309 71.1495 252.981 72.699 255.457 72.699L265.821 72.615C268.014 72.5898 269.451 71.8025 270.541 71.0739L270.613 71.0215L270.706 70.9669C271.368 70.4965 272.026 70.0011 272.665 69.451L272.783 69.3166L272.926 69.2095C273.424 68.7119 273.92 68.271 274.366 67.7944C274.862 67.2716 275.306 66.8307 275.876 66.0433L275.688 66.3331L279.78 61.2751L275.431 72.5374L318.007 72.2266L319.566 72.0398C319.566 72.0398 320.183 71.8592 320.372 71.7794C320.75 71.6261 320.962 71.517 321.125 71.4099C321.456 71.2545 321.596 71.1495 321.717 71.0467C321.978 70.8871 322.093 70.8136 322.212 70.7044C322.474 70.5238 322.684 70.337 322.967 70.1291C323.556 69.6588 324.195 69.1087 324.88 68.5313L324.974 68.4263L325.067 68.3445C325.706 67.7482 326.317 67.1456 326.957 66.5136C327.736 65.7557 328.417 65.0712 329.102 64.2608C329.505 63.7653 329.556 63.6834 329.719 63.4482C330.027 63.0514 330.311 62.6378 330.568 62.2158C330.733 61.9533 330.871 61.7182 331.043 61.4557L331.064 61.4032C331.277 61.0883 331.277 61.3003 331.911 59.8873L337.11 48.2241L332.057 48.2766L342.274 37.0648L340.577 36.8821L346.475 25.2252L297.365 25.5863L276.324 25.7228L266.903 37.1173L265.182 25.8005L242.54 25.9852L225.339 26.1175L222.744 32.8152C221.594 30.8017 219.959 29.185 218.209 28.1016C215.756 26.5584 213.274 26.191 210.917 26.2204L178.225 26.4534L176.543 30.8059C176.534 30.7954 176.526 30.787 176.519 30.7786C175.032 29.101 173.288 28.0281 171.492 27.3709H171.468C169.654 26.739 167.739 26.5059 165.944 26.5353L133.893 26.7684L129.41 38.4064L112.797 38.5198L114.7 36.649L124.381 24.0725L135.331 2.50821L37.3686 3.21807L33.9486 12.1258L3.89648 90.0144L55.1648 89.6469L63.2867 68.6321L82.2942 68.5082L88.3495 62.5538Z" fill="black"/>
<path d="M169.444 51.2895C170.712 49.6644 171.662 47.9617 172.273 46.2379C172.887 44.428 173.196 42.803 173.196 41.2829C173.196 39.3176 172.604 37.6947 171.45 36.4118C170.313 35.152 168.497 34.5222 165.994 34.5474L138.687 34.7384L126.762 65.594L142.365 65.4953C145.648 65.4681 148.57 65.2056 151.144 64.6828C153.768 64.1054 156.125 63.2677 158.251 62.1129C160.398 60.9854 162.385 59.5451 164.176 57.7878C165.994 55.9821 167.74 53.8321 169.444 51.2895ZM171.069 65.2791L182.993 34.4214L210.965 34.2114C212.499 34.2114 213.725 34.4739 214.646 35.0513C215.537 35.6266 216.252 36.3593 216.746 37.2516C217.242 38.1419 217.544 39.1098 217.717 40.1554C217.853 41.1821 217.926 42.1479 217.926 43.0402C217.949 45.0306 217.431 46.6536 216.39 47.9344C215.375 49.2235 214.077 50.2691 212.477 51.0522C210.918 51.7913 209.196 52.3414 207.303 52.7046C205.441 53.0196 203.646 53.2526 201.923 53.387L214.287 64.9725L200.909 65.0712L187.851 54.1177L187.168 54.5943L183.106 65.2056L171.069 65.2791ZM218.136 64.9432L230.109 34.0771L242.123 33.9973L230.175 64.8634L218.136 64.9432ZM262.256 54.567L279.51 33.7096L292.448 33.6361L270.305 60.9581C270.143 61.1954 269.857 61.5124 269.479 61.905C269.102 62.2956 268.673 62.6924 268.225 63.1333C267.78 63.528 267.334 63.864 266.885 64.1789C266.456 64.4686 266.081 64.603 265.773 64.603L255.41 64.6828C254.964 64.6828 254.557 64.4686 254.207 64.0529C253.85 63.6309 253.547 63.106 253.307 62.4761C253.048 61.8799 252.836 61.2227 252.673 60.5655C252.486 59.8873 252.342 59.2848 252.249 58.8354L248.165 33.9511L259.112 33.8734L262.256 54.567ZM298.327 33.5836L334.11 33.3212C333.83 33.8734 333.357 34.5998 332.644 35.4943C331.986 36.332 331.278 37.1992 330.476 38.0642C329.695 38.9271 328.963 39.6599 328.231 40.2898C327.502 40.9175 326.958 41.2283 326.627 41.2283L307.318 41.3626L303.754 50.5043L309.681 45.1125L324.171 45.0033L315.271 52.9167L302.761 53.0196L301.437 56.5049L325.446 56.318C325.423 56.3999 325.31 56.5868 325.138 56.8471C325 57.0844 324.829 57.3447 324.667 57.6072C324.504 57.8969 324.311 58.13 324.148 58.3651C323.986 58.5982 323.865 58.7326 323.84 58.7872C323.464 59.2554 322.945 59.7782 322.287 60.4101C321.648 61.0421 321.031 61.6384 320.42 62.241C319.779 62.7659 319.241 63.2404 318.746 63.6309C318.25 64.0256 317.989 64.2314 317.966 64.2314L286.404 64.4435L298.327 33.5836ZM147.818 42.5174L158.017 42.4355C158.821 42.4355 159.366 42.6455 159.642 43.12C159.973 43.5336 160.137 44.0858 160.137 44.743C160.137 45.2406 159.999 45.7907 159.716 46.366C159.479 46.9413 159.244 47.5459 159.006 48.1779C158.772 48.6734 158.488 49.1416 158.178 49.509C157.854 49.8975 157.593 50.2691 157.332 50.5588C156.766 51.4239 155.913 52.2889 154.784 53.154C153.67 53.9644 152.444 54.6972 151.099 55.3795C149.778 56.0388 148.434 56.6078 147.059 57.0277C145.745 57.4266 144.584 57.6345 143.568 57.6345L141.943 57.6597L147.818 42.5174ZM117.934 53.6516L99.3115 54.252L108.211 46.3387L126.901 45.7382L117.934 53.6516ZM205.791 43.7709V43.1452C205.791 42.8324 205.719 42.5699 205.581 42.383C205.441 42.1479 205.133 42.0471 204.637 42.0471L192.031 42.1185L188.467 51.216L193.991 45.9964L204.023 45.9502C204.662 45.925 205.11 45.6878 205.39 45.1587C205.651 44.6359 205.791 44.1656 205.791 43.7709Z" fill="#F3F3F3"/>
<path d="M45.4704 18.0011L111.674 17.5253C111.164 18.533 110.285 19.8451 109.036 21.464C107.786 23.0859 106.443 24.6906 104.997 26.2743C103.557 27.861 102.162 29.2316 100.811 30.3889C99.4631 31.5432 98.4655 32.1245 97.8232 32.1275L62.1047 32.3848L55.5255 49.3016L66.502 39.3369L93.3126 39.1439L76.8469 53.7641L53.7137 53.9339L45.61 74.9421L23.4434 75.0999L45.4704 18.0011Z" fill="#FF0000"/>
<path d="M78.0164 84.8284L97.5785 84.7927C97.4234 85.0888 97.1627 85.4751 96.7938 85.9517C96.4206 86.4304 96.0228 86.9007 95.5936 87.3668C95.1641 87.8329 94.751 88.2361 94.3505 88.5741C93.9508 88.9142 93.6557 89.0822 93.4663 89.0864L82.9138 89.1032L80.947 94.0918L84.2039 91.1629L92.1236 91.1503L87.2416 95.4461L80.4071 95.4566L79.6669 97.363L92.7922 97.3378C92.7734 97.3798 92.7208 97.4701 92.6365 97.6086C92.5496 97.7451 92.4605 97.8879 92.3656 98.037C92.2678 98.186 92.1734 98.3246 92.0784 98.4527C91.984 98.5787 91.9261 98.65 91.9072 98.6731C91.6969 98.9272 91.4178 99.2232 91.0647 99.5633C90.7149 99.9014 90.367 100.227 90.022 100.533C89.6803 100.842 89.375 101.1 89.1087 101.312C88.8425 101.526 88.701 101.631 88.6792 101.631L71.4365 101.663L78.0164 84.8284ZM92.8818 101.623L99.4611 84.7885L107.784 84.7717L109.743 94.2262L113.473 84.7612L119.995 84.7486L113.386 101.585L105.093 101.6L103.161 92.1455L99.4583 101.61L92.8818 101.623ZM121.907 84.7465L141.47 84.7087C141.317 85.0069 141.053 85.3932 140.684 85.8677C140.314 86.3443 139.913 86.8188 139.484 87.2828C139.055 87.7511 138.641 88.1542 138.244 88.4922C137.841 88.8323 137.549 89.0024 137.357 89.0024L126.804 89.0213L124.84 94.0099L128.094 91.0831L136.017 91.0663L131.133 95.3642L124.297 95.3747L123.557 97.2811L136.683 97.2559C136.664 97.2979 136.612 97.3882 136.528 97.5247C136.441 97.6632 136.351 97.806 136.256 97.9551C136.162 98.1041 136.064 98.2406 135.969 98.3666C135.875 98.4968 135.819 98.5682 135.798 98.5892C135.59 98.8432 135.308 99.1413 134.958 99.4815C134.605 99.8195 134.258 100.143 133.916 100.451C133.573 100.758 133.268 101.018 132.999 101.23C132.734 101.442 132.591 101.55 132.572 101.55L115.327 101.581L121.907 84.7465ZM136.772 101.541L143.352 84.7066L158.652 84.6772C159.492 84.6772 160.16 84.8326 160.656 85.1497C161.151 85.4646 161.531 85.8656 161.8 86.3548C162.069 86.8398 162.241 87.3668 162.318 87.9379C162.396 88.5111 162.436 89.0402 162.436 89.5273C162.438 90.6065 162.156 91.4946 161.596 92.1917C161.034 92.893 160.321 93.4493 159.453 93.8651C158.586 94.2787 157.638 94.5768 156.609 94.7574C155.578 94.9401 154.6 95.0618 153.662 95.129L160.395 101.497L153.072 101.51L145.971 95.4923L145.6 95.7463L143.349 101.529L136.772 101.541ZM184.167 90.976L175.931 90.9907C175.608 91.2259 175.246 91.5576 174.847 91.9943C174.446 92.4289 174.068 92.8657 173.706 93.2982C173.343 93.7328 173.029 94.1233 172.764 94.474C172.498 94.8225 172.354 95.0303 172.335 95.0933V95.1269L176.224 95.1185L175.426 97.1845L173.425 97.1866C173.006 97.1866 172.583 97.0606 172.153 96.8066C171.724 96.5546 171.336 96.2376 170.992 95.8576C170.649 95.4775 170.366 95.0597 170.146 94.6062C169.925 94.1506 169.817 93.7244 169.815 93.3213C169.815 93.0021 169.902 92.5696 170.071 92.0195C170.205 91.6584 170.385 91.2931 170.613 90.9235C170.842 90.554 171.098 90.2181 171.383 89.922C171.669 89.6239 171.985 89.3866 172.327 89.2061C172.67 89.0255 173.033 88.9352 173.411 88.9352L182.334 88.9163C183.135 88.2802 183.867 87.6062 184.533 86.8965C185.198 86.1869 185.866 85.431 186.532 84.6248L172.377 84.65C171.177 84.6521 170.031 84.9355 168.947 85.4982C167.859 86.0609 166.908 86.7894 166.09 87.6776C165.271 88.5699 164.621 89.5546 164.136 90.6338C163.652 91.713 163.41 92.7628 163.41 93.7769C163.412 95.3012 163.743 96.5588 164.405 97.5519C165.063 98.5451 165.926 99.3324 166.995 99.914C168.065 100.491 169.28 100.899 170.642 101.13C172.006 101.356 173.394 101.472 174.805 101.468L179.894 101.459L184.167 90.976ZM188.986 101.442L192.147 93.4367L188.246 84.6206L195.593 84.6059L197.317 88.572L202.171 84.5954L209.522 84.5807L198.724 93.4262L195.591 101.43L188.986 101.442ZM236.874 93.7643C237.594 92.8762 238.137 91.9376 238.497 90.9529C238.858 89.9682 239.036 89.0633 239.036 88.2382C239.034 87.1611 238.724 86.2708 238.103 85.5738C237.483 84.8788 236.486 84.5303 235.114 84.5324L220.185 84.5597L213.606 101.394L222.128 101.379C223.9 101.377 225.482 101.237 226.872 100.96C228.266 100.682 229.538 100.237 230.688 99.6327C231.842 99.028 232.912 98.2448 233.902 97.2769C234.893 96.3132 235.882 95.1437 236.874 93.7643ZM236.193 101.354L242.772 84.5198L258.074 84.4904C258.914 84.4862 259.581 84.6437 260.077 84.9628C260.571 85.2777 260.957 85.6787 261.221 86.168C261.49 86.6509 261.662 87.18 261.74 87.7511C261.817 88.3221 261.857 88.8533 261.857 89.3383C261.859 90.4175 261.577 91.3078 261.017 92.0048C260.455 92.7061 259.742 93.2625 258.876 93.6782C258.007 94.0918 257.06 94.39 256.029 94.5705C255.003 94.7532 254.02 94.875 253.085 94.9422L259.816 101.31L252.493 101.323L245.392 95.3054L245.021 95.5594L242.77 101.34L236.193 101.354ZM260.242 101.308L266.851 84.4715L273.428 84.4589L266.819 101.296L260.242 101.308ZM268.818 101.291L275.398 84.4568L283.719 84.44L285.679 93.8966L289.413 84.4316L295.932 84.419L289.322 101.251L281.029 101.268L279.1 91.8138L275.394 101.279L268.818 101.291ZM291.263 101.249L297.845 84.4127L304.45 84.4022L301.458 91.9628L312.8 84.3875L320.151 84.3728L308.294 92.8069L314.885 101.205L307.564 101.22L300.805 93.6782L297.843 101.237L291.263 101.249ZM225.17 88.8386L230.746 88.826C231.183 88.826 231.482 88.9457 231.647 89.1893C231.808 89.4307 231.889 89.7352 231.889 90.0942C231.891 90.3692 231.825 90.6632 231.69 90.9823C231.556 91.3015 231.426 91.629 231.291 91.967C231.159 92.2421 231.011 92.4856 230.85 92.6977C230.688 92.9076 230.54 93.1008 230.41 93.2709C230.063 93.7349 229.596 94.1968 228.995 94.6524C228.395 95.1101 227.737 95.5174 227.024 95.8807C226.31 96.2397 225.58 96.5316 224.837 96.7562C224.093 96.9788 223.416 97.0921 222.807 97.0921L221.92 97.0963L225.17 88.8386ZM155.8 89.8863V89.5399C155.8 89.3698 155.76 89.2271 155.684 89.1095C155.609 88.9919 155.436 88.9373 155.172 88.9373L148.278 88.9478L146.314 93.9049L149.34 91.0726L154.831 91.0642C155.174 91.0642 155.421 90.9172 155.573 90.6338C155.726 90.3482 155.8 90.1005 155.8 89.8863ZM255.221 89.6995V89.353C255.221 89.183 255.181 89.0402 255.106 88.9226C255.03 88.805 254.858 88.7505 254.593 88.7505L247.7 88.7609L245.734 93.7181L248.759 90.8857L254.252 90.8774C254.595 90.8753 254.843 90.7304 254.994 90.4469C255.147 90.1614 255.221 89.9136 255.221 89.6995Z" fill="#FF0000"/>
<path d="M353.336 3.73468C349.549 3.73468 346.475 7.14746 346.475 11.3512C346.475 15.5549 349.549 18.9676 353.336 18.9676C357.124 18.9676 360.199 15.5549 360.199 11.3512C360.199 7.14746 357.124 3.73468 353.336 3.73468ZM353.336 4.32389C356.831 4.32389 359.668 7.47278 359.668 11.3512C359.668 15.2295 356.831 18.3784 353.336 18.3784C349.841 18.3784 347.004 15.2295 347.004 11.3512C347.004 7.47278 349.841 4.32389 353.336 4.32389ZM350.253 15.2339V7.46842H353.355C353.978 7.46842 354.453 7.53799 354.778 7.67752C355.102 7.81705 355.362 8.06331 355.555 8.4165C355.749 8.76968 355.847 9.15983 355.847 9.58714C355.847 10.1381 355.686 10.6025 355.365 10.9803C355.044 11.3582 354.547 11.5984 353.876 11.7007C354.12 11.8314 354.306 11.9603 354.434 12.0875C354.704 12.3629 354.96 12.7072 355.203 13.1205L356.419 15.2339H355.254L354.328 13.6183C354.058 13.1522 353.836 12.7956 353.66 12.5483C353.486 12.3011 353.329 12.1281 353.191 12.0293C353.052 11.9303 352.911 11.8615 352.769 11.8226C352.663 11.7978 352.492 11.7855 352.253 11.7855H351.179V15.2339H350.253ZM351.179 10.8956H353.168C353.592 10.8956 353.923 10.8471 354.163 10.75C354.4 10.6528 354.581 10.4975 354.706 10.2838C354.83 10.0702 354.892 9.83795 354.892 9.58714C354.892 9.21993 354.772 8.91793 354.532 8.68134C354.291 8.44474 353.912 8.32645 353.394 8.32645H351.179V10.8956Z" fill="black"/>
</g>
<defs>
<clipPath id="clip0_614_9124">
<rect width="372" height="117" fill="white" transform="translate(0.5)"/>
</clipPath>
</defs>
</svg>
