<svg width="31" height="30" viewBox="0 0 31 30" fill="none" xmlns="http://www.w3.org/2000/svg">
<path d="M30.5 21.285C30.5 26.745 27.245 30 21.785 30H20C19.175 30 18.5 29.325 18.5 28.5V19.845C18.5 19.44 18.83 19.095 19.235 19.095L21.875 19.05C22.085 19.035 22.265 18.885 22.31 18.675L22.835 15.81C22.88 15.54 22.67 15.285 22.385 15.285L19.19 15.33C18.77 15.33 18.44 15 18.425 14.595L18.365 10.92C18.365 10.68 18.56 10.47 18.815 10.47L22.415 10.41C22.67 10.41 22.865 10.215 22.865 9.96001L22.805 6.35999C22.805 6.10499 22.61 5.91 22.355 5.91L18.305 5.97002C15.815 6.01502 13.835 8.055 13.88 10.545L13.955 14.67C13.97 15.09 13.64 15.42 13.22 15.435L11.42 15.465C11.165 15.465 10.97 15.66 10.97 15.915L11.015 18.765C11.015 19.02 11.21 19.215 11.465 19.215L13.265 19.185C13.685 19.185 14.015 19.515 14.03 19.92L14.165 28.47C14.18 29.31 13.505 30 12.665 30H9.215C3.755 30 0.5 26.745 0.5 21.27V8.715C0.5 3.255 3.755 0 9.215 0H21.785C27.245 0 30.5 3.255 30.5 8.715V21.285Z" fill="#FAFAFA"/>
</svg>
