<svg width="31" height="30" viewBox="0 0 31 30" fill="none" xmlns="http://www.w3.org/2000/svg">
<path d="M15.5033 7.30675C11.2468 7.30675 7.81344 10.7401 7.81344 14.9967C7.81344 19.2532 11.2468 22.6866 15.5033 22.6866C19.7599 22.6866 23.1933 19.2532 23.1933 14.9967C23.1933 10.7401 19.7599 7.30675 15.5033 7.30675ZM15.5033 19.9961C12.7527 19.9961 10.5039 17.754 10.5039 14.9967C10.5039 12.2393 12.746 9.99721 15.5033 9.99721C18.2607 9.99721 20.5028 12.2393 20.5028 14.9967C20.5028 17.754 18.254 19.9961 15.5033 19.9961ZM25.3015 6.99219C25.3015 7.9894 24.4983 8.78584 23.5078 8.78584C22.5106 8.78584 21.7142 7.98271 21.7142 6.99219C21.7142 6.00167 22.5173 5.19855 23.5078 5.19855C24.4983 5.19855 25.3015 6.00167 25.3015 6.99219ZM30.3946 8.8126C30.2808 6.40993 29.732 4.28165 27.9718 2.52817C26.2184 0.774679 24.0901 0.225878 21.6874 0.10541C19.2111 -0.0351366 11.7889 -0.0351366 9.3126 0.10541C6.91662 0.219186 4.78834 0.767987 3.02817 2.52147C1.26799 4.27496 0.725878 6.40323 0.60541 8.80591C0.464863 11.2822 0.464863 18.7044 0.60541 21.1807C0.719186 23.5834 1.26799 25.7117 3.02817 27.4651C4.78834 29.2186 6.90993 29.7674 9.3126 29.8879C11.7889 30.0284 19.2111 30.0284 21.6874 29.8879C24.0901 29.7741 26.2184 29.2253 27.9718 27.4651C29.7253 25.7117 30.2741 23.5834 30.3946 21.1807C30.5351 18.7044 30.5351 11.2889 30.3946 8.8126ZM27.1955 23.8377C26.6735 25.1495 25.6629 26.1601 24.3444 26.6888C22.3701 27.4718 17.6852 27.2911 15.5033 27.2911C13.3215 27.2911 8.62995 27.4651 6.6623 26.6888C5.35053 26.1668 4.33993 25.1562 3.81121 23.8377C3.02817 21.8634 3.20887 17.1785 3.20887 14.9967C3.20887 12.8148 3.03486 8.12326 3.81121 6.15561C4.33324 4.84384 5.34384 3.83324 6.6623 3.30452C8.63664 2.52147 13.3215 2.70217 15.5033 2.70217C17.6852 2.70217 22.3767 2.52816 24.3444 3.30452C25.6562 3.82655 26.6668 4.83714 27.1955 6.15561C27.9785 8.12995 27.7978 12.8148 27.7978 14.9967C27.7978 17.1785 27.9785 21.8701 27.1955 23.8377Z" fill="#FAFAFA"/>
</svg>
