<svg width="259" height="91" viewBox="0 0 259 91" fill="none" xmlns="http://www.w3.org/2000/svg">
<path d="M239.395 68.6274L122.836 30.385C121.153 29.9559 121.808 28.4494 123.179 24.5279C124.383 20.6127 123.503 19.4064 119.918 20.0492C113.196 21.3157 109.465 21.9693 102.923 22.9775L86.1004 23.6665C81.3853 23.8385 78.6556 25.3251 74.5991 27.2843C70.5035 29.567 68.3332 30.9994 64.8143 34.0025L56.5745 43.8215C51.1408 50.7744 48.233 54.0447 43.6998 56.9135C39.5305 59.1165 36.3183 60.7031 37.0049 64.4929C37.6915 68.2827 38.8461 72.2979 37.5199 73.9676C33.8239 78.5436 31.6562 80.6155 27.3918 82.2362H18.8087C15.1525 83.8677 13.2817 85.0752 10.0539 87.4041C4.86045 87.8601 2.80965 86.8689 3.70237 80.5133L14.3454 64.3208L26.0185 56.2243C30.769 53.2142 33.0648 51.4145 36.3183 47.9557L51.4246 19.5323C52.9557 17.2716 54.6427 16.7498 57.9478 16.087C90.918 13.2509 93.1031 13.1212 93.4819 12.6417C93.4819 12.6417 118.03 3.68404 120.261 3.51181C122.493 3.33957 127.299 5.06231 128.158 7.99082C129.016 10.9193 133.261 20.6092 139.316 22.4609C142.921 23.839 145.778 22.1856 148.414 21.4273C153.392 19.0156 158.37 16.8286 160.087 18.3266C177.1 33.1728 181.463 36.7464 183.776 37.4478C195.703 39.5813 215.534 40.204 216.736 40.204C217.937 40.204 244.202 36.242 244.202 36.242C248.562 36.0124 250.291 36.3478 252.613 37.4478C256.088 40.8465 256.347 44.9755 253.815 54.5018C252.222 64.5042 249.369 67.9291 239.395 68.6274Z" stroke="black" stroke-width="7"/>
</svg>
